<svg width="310" height="101" fill="none" xmlns="http://www.w3.org/2000/svg"><path d="m2.384 82.43 9.503-20.699-.218 15.322-3.112 6.516c-1.325 2.773-5.11 6.75-6.858 4.222-1.2-1.736-.196-3.443.685-5.361zm24.945 0-9.503-20.7.218 15.322 3.112 6.516c1.325 2.773 5.11 6.75 6.858 4.222 1.2-1.736.196-3.443-.685-5.361z" fill="#000" stroke="#000" stroke-width=".5"/><rect x=".354" width="4.099" height="34.758" rx="2.049" transform="scale(1 -1) rotate(-45 -26.828 -28.434)" fill="#000" stroke="#000" stroke-width=".5"/><rect x="-.25" y=".25" width="6.711" height="88.038" rx="3.356" transform="matrix(-1 0 0 1 17.797 .287)" fill="#000" stroke="#000" stroke-width=".5"/><rect x="-.5" y=".5" width="1.404" height="31.851" rx=".702" transform="matrix(-1 0 0 1 55.757 2.69)" fill="#000" stroke="#000"/><rect x=".25" y=".25" width="6.554" height="53.584" rx="3.277" transform="matrix(0 1 1 0 11.016 0)" fill="#000" stroke="#000" stroke-width=".5"/><path d="M66.068 36.317a7.053 7.053 0 0 1-.18.312c-1.398 2.3-4.792 2.834-7.032 1.343-2.434-1.62-2.957-4.891-.912-6.982 1.448-1.481 3.05-1.892 3.947-1.856 1.713.069 2.902.79 3.695 1.67 1.335 1.48 1.43 3.76.482 5.513zM52.455 64.574c.151-2.673.324-6.33.425-8.59l7.706-.41c.1.122.051 4.283.365 8.267.202 2.557.579 7.985-1.953 7.575-1.535-.248-1.277-1.849-1.395-3.399a203.784 203.784 0 0 1-.32-5.547c-.034-.76-.385-2.063-.802-1.428-.238.363-.263.81-.287 1.245v.012l-.299 5.41c-.335 2.656-1.061 3.89-1.675 3.89-.523 0-.913-.204-1.203-.528-1.478-1.65-.687-4.285-.562-6.497z" fill="#000" stroke="#000" stroke-width=".25" stroke-linecap="round" stroke-linejoin="round"/><path d="M52.28 44.521c0-6.667 2.488-9.188 3.877-9.78 1.215 2.518 4.656 4.407 6.74 4.407-1.111.592-1.937 3.25-2.11 4.78-.278 2.371-.116 9.088 0 12.15l-8.507.296V44.521z" fill="#000" stroke="#000" stroke-width=".25" stroke-linecap="round" stroke-linejoin="round"/><path d="M46.774 50.13c.637-7.486 6.583-14.653 9.238-15.29-2.039 1.53-3.679 6.538-3.732 8.714-1.274.383-1.418 5.62-1.524 8.168-.278 1.944-2.966 3.855-3.749 2.055-.428-.986-.375-2.569-.233-3.647zm16.029.884c-.135-3.243-1.416-5.477-2.11-6.258 0-3.645 1.48-5.347 2.003-5.608-.251.377.462 1.686.812 2.387 1.03 2.059 1.934 4.883 2.508 7.302.574 2.417.132 6.832-2.117 5.778-1.285-.602-1.037-2.183-1.096-3.6z" fill="#000" stroke="#000" stroke-width=".25" stroke-linecap="round" stroke-linejoin="round"/><path d="M104.184 39c1.92 0 2.88 6 2.88 18s-.864 18-2.592 18c-1.728 0-2.64-.264-2.736-.792l-.432-4.896v-3.888c0-.816-.096-.984-.288-.504-.192.48-.48 1.608-.864 3.384l-5.76 7.416h-8.928L79.2 70.968l-3.528-8.496v-10.8l3.6-8.568 6.624-4.824h9.072l5.328 6.192c.336 1.68.576 2.52.72 2.52.192-.048.288-.96.288-2.736 0-3.504.96-5.256 2.88-5.256zm-8.28 31.176 5.4-7.416V51.024l-5.4-7.128H86.04l-4.608 7.056v12.024l4.968 7.2h9.504zM137.65 38.28l5.328 2.376 3.672 5.76v16.632c0 7.968-.96 11.952-2.88 11.952s-2.88-3.744-2.88-11.232V44.04h-12.888l-5.112 6.192c-.672 2.592-1.008 7.344-1.008 14.256 0 7.008-.96 10.512-2.88 10.512s-2.88-6-2.88-18 .96-18 2.88-18 2.88 1.776 2.88 5.328c0 3.6.432 4.008 1.296 1.224l6.48-7.272h7.992zm51.898 3.744c0 2.112-1.536 3.168-4.608 3.168-2.544-.96-3.84-1.296-3.888-1.008-.048.288.888 1.296 2.808 3.024v11.376l-4.032 6.984-6.768 3.744c-2.688 0-5.472.072-8.352.216l-3.816 1.296v2.88L162.548 75h15.336l7.488 5.328v7.56c0 1.008-.96 1.512-2.88 1.512s-2.88-.264-2.88-.792v-4.536l-3.96-3.528h-20.52v-9.432l4.968-2.88c2.304.048 2.064-.456-.72-1.512l-5.256-7.488v-9.936l4.104-7.128 6.84-3.888h6.408c1.392.528 4.512.744 9.36.648 3.12 0 5.352.264 6.696.792 1.344.48 2.016 1.248 2.016 2.304zm-16.776 21.888 5.328-5.4v-9.144l-5.328-5.472h-7.488l-5.4 5.4v9.216l5.4 5.4h7.488zm55.21-25.632v24.768c0 7.968-.96 11.952-2.88 11.952s-2.88-4.104-2.88-12.312V47.064l-1.512-3.024h-5.184c-1.344 4.656-2.016 10.992-2.016 19.008 0 7.968-.912 11.952-2.736 11.952-1.824 0-2.736-4.104-2.736-12.312V46.992l-1.296-2.952h-4.248l-2.88 5.904c-.24 1.2-.432 3-.576 5.4-.096 2.4-.144 5.376-.144 8.928 0 7.152-.96 10.728-2.88 10.728s-2.88-6-2.88-18 .96-18 2.88-18 2.88 1.704 2.88 5.112c0 3.312.312 3.624.936.936l3.888-6.768h7.344c1.008 3.12 1.728 5.136 2.16 6.048.48.912.888.744 1.224-.504l3.744-5.544h9.792zm34.546.72c1.92 0 2.88 6 2.88 18s-.864 18-2.592 18c-1.728 0-2.64-.264-2.736-.792l-.432-4.896v-3.888c0-.816-.096-.984-.288-.504-.192.48-.48 1.608-.864 3.384l-5.76 7.416h-8.928l-6.264-4.752-3.528-8.496v-10.8l3.6-8.568 6.624-4.824h9.072l5.328 6.192c.336 1.68.576 2.52.72 2.52.192-.048.288-.96.288-2.736 0-3.504.96-5.256 2.88-5.256zm-8.28 31.176 5.4-7.416V51.024l-5.4-7.128h-9.864l-4.608 7.056v12.024l4.968 7.2h9.504zm41.746-31.896 5.328 2.376 3.672 5.76v16.632c0 7.968-.96 11.952-2.88 11.952s-2.88-3.744-2.88-11.232V44.04h-12.888l-5.112 6.192c-.672 2.592-1.008 7.344-1.008 14.256 0 7.008-.96 10.512-2.88 10.512s-2.88-6-2.88-18 .96-18 2.88-18 2.88 1.776 2.88 5.328c0 3.6.432 4.008 1.296 1.224l6.48-7.272h7.992z" fill="#000"/></svg>