<svg width="165" height="223" fill="#aaa" xmlns="http://www.w3.org/2000/svg"><g stroke="#000"><path d="m2.323 208.501 24.851-54.129-.543 38.244-9.49 19.871c-2.185 4.574-5.605 9.494-10.673 9.415-2.715-.043-4.365-1.553-5.3-3.475-1.522-3.13-.297-6.762 1.155-9.926zm64.527 0L42 154.372l.543 38.244 9.491 19.871c2.184 4.574 5.605 9.494 10.672 9.415 2.715-.043 4.365-1.553 5.3-3.475 1.522-3.13.297-6.762-1.155-9.926z" stroke-width=".5"/><rect x=".354" width="10.979" height="87.506" rx="5.49" transform="scale(1 -1) rotate(-45 -69.086 -68.104)" fill="#000" stroke-width=".5"/><rect x="-.25" y=".25" width="17.5" height="220.5" rx="8.75" transform="matrix(-1 0 0 1 42.674 1)" stroke-width=".5"/><rect x="-.5" y=".5" width="5" height="81" rx="2.5" transform="matrix(-1 0 0 1 138.174 7)"/><rect x=".25" y=".25" width="17.109" height="134.5" rx="8.554" transform="matrix(0 1 1 0 25 .284)" stroke-width=".5"/><path d="M150.102 97.856c-3.84-1.174-7.44-3.813-10.133-6.344-2.377-2.236-3.056-5.753-1.551-8.65 4.166-8.02 10.513-9.979 13.572-9.857 6.578.263 10.065 4.386 11.607 7.861.829 1.868.913 3.982.415 5.965-1.043 4.152-3.386 7.183-5.649 9.161-2.261 1.977-5.389 2.742-8.261 1.864zm-21.971 68.599c.421-6.142 1.043-19.176 1.365-26.429L148.733 139c.249.305.127 10.693.911 20.636.503 6.384 1.445 19.933-4.876 18.91-3.831-.621-3.187-4.615-3.481-8.485-.332-4.355-.632-10.156-.799-13.846-.086-1.895-.961-5.149-2.001-3.564-.595.907-.656 2.024-.716 3.107l-.002.031-.746 13.504c-.836 6.63-2.648 9.707-4.181 9.707-3.132 0-4.356-2.926-4.795-5.904-.324-2.191-.067-4.431.084-6.641z" stroke-width=".25" stroke-linecap="round" stroke-linejoin="round"/><path d="M128 111.414c0-16.642 6.21-22.935 9.677-24.414 3.033 6.287 11.623 11 16.823 11-2.773 1.48-4.833 8.113-5.267 11.935-.693 5.917-.289 22.682 0 30.325L128 141v-29.586z" stroke-width=".25" stroke-linecap="round" stroke-linejoin="round"/><path d="M114.257 125.413c1.59-18.685 16.432-36.573 23.057-38.164-5.088 3.817-9.181 16.318-9.314 21.751-3.18.954-3.539 14.027-3.804 20.388a16.543 16.543 0 0 1-.538 2.477c-.941 3.073-4.398 6.09-7.226 4.563-2.731-1.474-2.652-7.387-2.175-11.015z" fill="#000" stroke-width=".25" stroke-linecap="round" stroke-linejoin="round"/><path d="M154.28 128.022c-.245-8.312-3.52-14.042-5.28-16.022 0-9.098 3.693-13.346 5-14-.627.941 1.151 4.209 2.027 5.96 2.666 5.332 4.997 12.722 6.419 18.907 1.285 5.592 1.438 14.864-4.249 14.099a4.049 4.049 0 0 1-1.053-.293c-3.016-1.285-2.768-5.375-2.864-8.651z" stroke-width=".25" stroke-linecap="round" stroke-linejoin="round"/></g></svg>